<?xml version="1.0" encoding="UTF-8" standalone="no"?>
<!DOCTYPE svg PUBLIC "-//W3C//DTD SVG 1.1//EN"
 "http://www.w3.org/Graphics/SVG/1.1/DTD/svg11.dtd">
<!-- Generated by graphviz version 8.0.2 (20230410.1723)
 -->
<!-- Pages: 1 -->
<svg width="2873pt" height="1983pt"
 viewBox="0.00 0.00 689.63 476.00" xmlns="http://www.w3.org/2000/svg" xmlns:xlink="http://www.w3.org/1999/xlink">
<g id="graph0" class="graph" transform="scale(4.16667 4.16667) rotate(0) translate(4 472)">
<polygon fill="white" stroke="none" points="-4,4 -4,-472 685.63,-472 685.63,4 -4,4"/>
<!-- &quot;Urszula Zawislak&quot; -->
<g id="node1" class="node">
<title>&quot;Urszula Zawislak&quot;</title>
<ellipse fill="none" stroke="black" cx="198.79" cy="-234" rx="79.89" ry="18"/>
<text text-anchor="middle" x="198.79" y="-230.3" font-family="Times New Roman,serif" font-size="14.00">&quot;Urszula Zawislak&quot;</text>
</g>
<!-- &quot;Maks Zawislak&quot; -->
<g id="node2" class="node">
<title>&quot;Maks Zawislak&quot;</title>
<ellipse fill="none" stroke="black" cx="72.79" cy="-18" rx="72.59" ry="18"/>
<text text-anchor="middle" x="72.79" y="-14.3" font-family="Times New Roman,serif" font-size="14.00">&quot;Maks Zawislak&quot;</text>
</g>
<!-- &quot;Urszula Zawislak&quot;&#45;&gt;&quot;Maks Zawislak&quot; -->
<g id="edge1" class="edge">
<title>&quot;Urszula Zawislak&quot;&#45;&gt;&quot;Maks Zawislak&quot;</title>
<path fill="none" stroke="black" d="M162.53,-217.6C133.64,-203.18 95.11,-178.65 76.79,-144 60.88,-113.9 62.96,-73.78 66.96,-47.21"/>
<polygon fill="black" stroke="black" points="70.58,-47.82 68.81,-37.37 63.68,-46.64 70.58,-47.82"/>
</g>
<!-- &quot;Mikolaj Zawislak&quot; -->
<g id="node3" class="node">
<title>&quot;Mikolaj Zawislak&quot;</title>
<ellipse fill="none" stroke="black" cx="357.79" cy="-18" rx="79.09" ry="18"/>
<text text-anchor="middle" x="357.79" y="-14.3" font-family="Times New Roman,serif" font-size="14.00">&quot;Mikolaj Zawislak&quot;</text>
</g>
<!-- &quot;Urszula Zawislak&quot;&#45;&gt;&quot;Mikolaj Zawislak&quot; -->
<g id="edge2" class="edge">
<title>&quot;Urszula Zawislak&quot;&#45;&gt;&quot;Mikolaj Zawislak&quot;</title>
<path fill="none" stroke="black" d="M231.2,-217.14C258.87,-202 297.75,-176.68 320.79,-144 341.45,-114.71 350.71,-73.82 354.77,-46.89"/>
<polygon fill="black" stroke="black" points="358.33,-47.66 356.21,-37.28 351.39,-46.72 358.33,-47.66"/>
</g>
<!-- &quot;Grzegorz Zawislak&quot; -->
<g id="node4" class="node">
<title>&quot;Grzegorz Zawislak&quot;</title>
<ellipse fill="none" stroke="black" cx="198.79" cy="-126" rx="86.38" ry="18"/>
<text text-anchor="middle" x="198.79" y="-122.3" font-family="Times New Roman,serif" font-size="14.00">&quot;Grzegorz Zawislak&quot;</text>
</g>
<!-- &quot;Urszula Zawislak&quot;&#45;&gt;&quot;Grzegorz Zawislak&quot; -->
<g id="edge3" class="edge">
<title>&quot;Urszula Zawislak&quot;&#45;&gt;&quot;Grzegorz Zawislak&quot;</title>
<path fill="none" stroke="black" d="M178.54,-216.44C170.98,-199.73 169.77,-173.67 174.92,-153.98"/>
<polygon fill="black" stroke="black" points="178.48,-155.39 178.44,-144.8 171.87,-153.11 178.48,-155.39"/>
</g>
<!-- &quot;Grzegorz Zawislak&quot;&#45;&gt;&quot;Urszula Zawislak&quot; -->
<g id="edge5" class="edge">
<title>&quot;Grzegorz Zawislak&quot;&#45;&gt;&quot;Urszula Zawislak&quot;</title>
<path fill="none" stroke="black" d="M219.15,-143.8C226.65,-160.59 227.8,-186.66 222.59,-206.29"/>
<polygon fill="black" stroke="black" points="219.04,-204.84 219.04,-215.44 225.65,-207.15 219.04,-204.84"/>
</g>
<!-- &quot;Grzegorz Zawislak&quot;&#45;&gt;&quot;Maks Zawislak&quot; -->
<g id="edge4" class="edge">
<title>&quot;Grzegorz Zawislak&quot;&#45;&gt;&quot;Maks Zawislak&quot;</title>
<path fill="none" stroke="black" d="M178.83,-108.2C157.82,-90.53 124.57,-62.56 100.91,-42.65"/>
<polygon fill="black" stroke="black" points="103.57,-39.48 93.67,-35.72 99.06,-44.83 103.57,-39.48"/>
</g>
<!-- &quot;Grzegorz Zawislak&quot;&#45;&gt;&quot;Mikolaj Zawislak&quot; -->
<g id="edge6" class="edge">
<title>&quot;Grzegorz Zawislak&quot;&#45;&gt;&quot;Mikolaj Zawislak&quot;</title>
<path fill="none" stroke="black" d="M223.64,-108.44C250.71,-90.39 294.16,-61.42 324.25,-41.36"/>
<polygon fill="black" stroke="black" points="325.75,-43.91 332.12,-35.45 321.86,-38.08 325.75,-43.91"/>
</g>
<!-- &quot;Rozalia Trawka&quot; -->
<g id="node5" class="node">
<title>&quot;Rozalia Trawka&quot;</title>
<ellipse fill="none" stroke="black" cx="385.79" cy="-450" rx="75.29" ry="18"/>
<text text-anchor="middle" x="385.79" y="-446.3" font-family="Times New Roman,serif" font-size="14.00">&quot;Rozalia Trawka&quot;</text>
</g>
<!-- &quot;Rozalia Trawka&quot;&#45;&gt;&quot;Urszula Zawislak&quot; -->
<g id="edge7" class="edge">
<title>&quot;Rozalia Trawka&quot;&#45;&gt;&quot;Urszula Zawislak&quot;</title>
<path fill="none" stroke="black" d="M359.19,-432.76C334.2,-416.57 296.85,-389.87 270.79,-360 244.49,-329.85 222.97,-288.63 210.51,-261.92"/>
<polygon fill="black" stroke="black" points="213.37,-260.75 206.04,-253.1 207,-263.66 213.37,-260.75"/>
</g>
<!-- &quot;Daniel Trawka&quot; -->
<g id="node6" class="node">
<title>&quot;Daniel Trawka&quot;</title>
<ellipse fill="none" stroke="black" cx="572.79" cy="-234" rx="70.69" ry="18"/>
<text text-anchor="middle" x="572.79" y="-230.3" font-family="Times New Roman,serif" font-size="14.00">&quot;Daniel Trawka&quot;</text>
</g>
<!-- &quot;Rozalia Trawka&quot;&#45;&gt;&quot;Daniel Trawka&quot; -->
<g id="edge8" class="edge">
<title>&quot;Rozalia Trawka&quot;&#45;&gt;&quot;Daniel Trawka&quot;</title>
<path fill="none" stroke="black" d="M412.4,-432.76C437.39,-416.57 474.74,-389.87 500.79,-360 527.1,-329.85 548.62,-288.63 561.08,-261.92"/>
<polygon fill="black" stroke="black" points="564.59,-263.66 565.55,-253.1 558.22,-260.75 564.59,-263.66"/>
</g>
<!-- &quot;Tadeusz Trawka&quot; -->
<g id="node7" class="node">
<title>&quot;Tadeusz Trawka&quot;</title>
<ellipse fill="none" stroke="black" cx="385.79" cy="-342" rx="79.09" ry="18"/>
<text text-anchor="middle" x="385.79" y="-338.3" font-family="Times New Roman,serif" font-size="14.00">&quot;Tadeusz Trawka&quot;</text>
</g>
<!-- &quot;Rozalia Trawka&quot;&#45;&gt;&quot;Tadeusz Trawka&quot; -->
<g id="edge9" class="edge">
<title>&quot;Rozalia Trawka&quot;&#45;&gt;&quot;Tadeusz Trawka&quot;</title>
<path fill="none" stroke="black" d="M365.54,-432.44C357.98,-415.73 356.77,-389.67 361.92,-369.98"/>
<polygon fill="black" stroke="black" points="365.48,-371.39 365.44,-360.8 358.87,-369.11 365.48,-371.39"/>
</g>
<!-- &quot;Anna Trawka&quot; -->
<g id="node8" class="node">
<title>&quot;Anna Trawka&quot;</title>
<ellipse fill="none" stroke="black" cx="572.79" cy="-126" rx="67.69" ry="18"/>
<text text-anchor="middle" x="572.79" y="-122.3" font-family="Times New Roman,serif" font-size="14.00">&quot;Anna Trawka&quot;</text>
</g>
<!-- &quot;Daniel Trawka&quot;&#45;&gt;&quot;Anna Trawka&quot; -->
<g id="edge13" class="edge">
<title>&quot;Daniel Trawka&quot;&#45;&gt;&quot;Anna Trawka&quot;</title>
<path fill="none" stroke="black" d="M552.54,-216.44C544.93,-199.64 543.76,-173.36 549.01,-153.63"/>
<polygon fill="black" stroke="black" points="552.58,-155.04 552.6,-144.45 545.98,-152.72 552.58,-155.04"/>
</g>
<!-- &quot;Julian Trawka&quot; -->
<g id="node9" class="node">
<title>&quot;Julian Trawka&quot;</title>
<ellipse fill="none" stroke="black" cx="608.79" cy="-18" rx="68.49" ry="18"/>
<text text-anchor="middle" x="608.79" y="-14.3" font-family="Times New Roman,serif" font-size="14.00">&quot;Julian Trawka&quot;</text>
</g>
<!-- &quot;Daniel Trawka&quot;&#45;&gt;&quot;Julian Trawka&quot; -->
<g id="edge14" class="edge">
<title>&quot;Daniel Trawka&quot;&#45;&gt;&quot;Julian Trawka&quot;</title>
<path fill="none" stroke="black" d="M602.37,-217.41C627.41,-202.37 661.59,-177.03 676.79,-144 693.39,-107.96 662.39,-67.94 636.99,-43.12"/>
<polygon fill="black" stroke="black" points="639.69,-40.91 630.01,-36.62 634.9,-46.01 639.69,-40.91"/>
</g>
<!-- &quot;Tadeusz Trawka&quot;&#45;&gt;&quot;Urszula Zawislak&quot; -->
<g id="edge10" class="edge">
<title>&quot;Tadeusz Trawka&quot;&#45;&gt;&quot;Urszula Zawislak&quot;</title>
<path fill="none" stroke="black" d="M357.39,-324.9C325.13,-306.61 272.33,-276.69 236.6,-256.43"/>
<polygon fill="black" stroke="black" points="238.89,-253.14 228.46,-251.25 235.44,-259.23 238.89,-253.14"/>
</g>
<!-- &quot;Tadeusz Trawka&quot;&#45;&gt;&quot;Rozalia Trawka&quot; -->
<g id="edge11" class="edge">
<title>&quot;Tadeusz Trawka&quot;&#45;&gt;&quot;Rozalia Trawka&quot;</title>
<path fill="none" stroke="black" d="M406.15,-359.8C413.65,-376.59 414.8,-402.66 409.59,-422.29"/>
<polygon fill="black" stroke="black" points="406.04,-420.84 406.04,-431.44 412.65,-423.15 406.04,-420.84"/>
</g>
<!-- &quot;Tadeusz Trawka&quot;&#45;&gt;&quot;Daniel Trawka&quot; -->
<g id="edge12" class="edge">
<title>&quot;Tadeusz Trawka&quot;&#45;&gt;&quot;Daniel Trawka&quot;</title>
<path fill="none" stroke="black" d="M414.19,-324.9C446.65,-306.51 499.87,-276.34 535.6,-256.08"/>
<polygon fill="black" stroke="black" points="536.76,-258.88 543.74,-250.9 533.31,-252.79 536.76,-258.88"/>
</g>
<!-- &quot;Anna Trawka&quot;&#45;&gt;&quot;Daniel Trawka&quot; -->
<g id="edge16" class="edge">
<title>&quot;Anna Trawka&quot;&#45;&gt;&quot;Daniel Trawka&quot;</title>
<path fill="none" stroke="black" d="M592.99,-143.45C600.63,-160.2 601.84,-186.47 596.61,-206.23"/>
<polygon fill="black" stroke="black" points="593.04,-204.84 593.04,-215.44 599.65,-207.15 593.04,-204.84"/>
</g>
<!-- &quot;Anna Trawka&quot;&#45;&gt;&quot;Julian Trawka&quot; -->
<g id="edge15" class="edge">
<title>&quot;Anna Trawka&quot;&#45;&gt;&quot;Julian Trawka&quot;</title>
<path fill="none" stroke="black" d="M578.58,-107.97C584.19,-91.45 592.79,-66.12 599.39,-46.7"/>
<polygon fill="black" stroke="black" points="603,-47.93 602.9,-37.34 596.37,-45.68 603,-47.93"/>
</g>
</g>
</svg>
